<?xml version="1.0" encoding="UTF-8" standalone="no"?><!DOCTYPE svg PUBLIC "-//W3C//DTD SVG 1.1//EN" "http://www.w3.org/Graphics/SVG/1.1/DTD/svg11.dtd"><svg width="100%" height="100%" viewBox="0 0 482 362" version="1.1" xmlns="http://www.w3.org/2000/svg" xmlns:xlink="http://www.w3.org/1999/xlink" xml:space="preserve" xmlns:serif="http://www.serif.com/" style="fill-rule:evenodd;clip-rule:evenodd;stroke-linecap:round;stroke-linejoin:round;stroke-miterlimit:1.5;"><g id="lvl-5" serif:id="lvl 5"><g id="maze"><rect id="Dead-zone" serif:id="Dead zone" x="-0" y="-1.764" width="482" height="363.764" style="fill:#300c01;"/><path d="M11.482,348.585l459.036,-0l0,-341.809l-459.036,-0l-0,341.809Z" style="fill:#fff;stroke:#300c01;stroke-width:3.35px;"/><g><path d="M286.94,337.348l164.435,-0l0,-100.961m0,-16.916l0.06,-198.519m-23.836,-0.026l-398.149,0.068m-0,16.921l-0,299.433l230.629,-0" style="fill:none;stroke:#300c01;stroke-width:3.35px;stroke-linecap:square;"/></g><g><path d="M204.486,38.976l-150.911,0l-0,89.443m-0,16.798l-0.053,174.057m26.855,0.024l346.986,-0.061m-0.098,-17.174l0.098,-263.087l-196.151,0" style="fill:none;stroke:#300c01;stroke-width:3.35px;stroke-linecap:square;"/></g><g><path d="M209.123,301.222l-131.449,-0l0,-77.908m0,-16.251l-0.046,-149.99m26.63,-0.021l298.998,0.053m0,17.151l0,226.966l-167.35,-0" style="fill:none;stroke:#300c01;stroke-width:3.35px;stroke-linecap:square;"/></g><g><path d="M271.685,283.908l108.329,-0l-0,-66.859m0.152,-17.066l-0.113,-125.599m-26.729,-0.018l-252.718,0.045m0.062,18.005l-0.062,191.492l144.314,-0" style="fill:none;stroke:#300c01;stroke-width:3.35px;stroke-linecap:square;"/></g><g><path d="M209.12,92.416l-84.297,0l0,55.341m0,16.841l-0.032,101.245m26.48,0.014l204.823,-0.037m-0,-17.18l-0,-156.224l-120.188,0" style="fill:none;stroke:#300c01;stroke-width:3.35px;stroke-linecap:square;"/></g><g><path d="M271.765,110.492l60.197,0l-0,43.805m-0,16.935l0.026,76.538m-26.484,0.011l-156.607,-0.029m0,-0l0,-137.26l96.106,0" style="fill:none;stroke:#300c01;stroke-width:3.35px;stroke-linecap:square;"/></g><g><path d="M209.073,128.543l-36.085,-0l0,32.286m-0.003,16.851l-0.016,52.042m26.372,0.009l108.574,-0.022m0,-17.216l0,-83.95l-72.219,-0" style="fill:none;stroke:#300c01;stroke-width:3.35px;stroke-linecap:square;"/></g><g><path d="M235.87,211.681l-38.816,-0l-0,-20.768m-0.642,-13.233l0,-49.137m27.072,18.05l84.431,0.014m-24.072,17.333l0,47.741l-47.973,-0" style="fill:none;stroke:#300c01;stroke-width:3.35px;stroke-linecap:square;"/></g><g id="Closeing-paths" serif:id="Closeing paths"><path d="M209.022,300.657l0,-16.276" style="fill:none;stroke:#300c01;stroke-width:3.51px;stroke-linecap:square;"/><path d="M235.992,300.657l0,-15.712" style="fill:none;stroke:#300c01;stroke-width:3.51px;stroke-linecap:square;"/><path d="M209.022,90.643l0,-15.648" style="fill:none;stroke:#300c01;stroke-width:3.51px;stroke-linecap:square;"/><path d="M204.386,37.887l-0,-16.477" style="fill:none;stroke:#300c01;stroke-width:3.51px;stroke-linecap:square;"/><path d="M380.166,73.53l0,-16.478" style="fill:none;stroke:#300c01;stroke-width:3.51px;stroke-linecap:square;"/><path d="M271.853,128.31l0,-17.678" style="fill:none;stroke:#300c01;stroke-width:3.51px;stroke-linecap:square;"/><path d="M199.426,247.686l0,-16.887" style="fill:none;stroke:#300c01;stroke-width:3.51px;stroke-linecap:square;"/><path d="M428.414,336.615l-0,-17.313" style="fill:none;stroke:#300c01;stroke-width:3.51px;stroke-linecap:square;"/><path d="M101.287,92.523l22.965,-0" style="fill:none;stroke:#300c01;stroke-width:3.51px;stroke-linecap:square;"/><path d="M53.99,128.351l22.966,-0" style="fill:none;stroke:#300c01;stroke-width:3.51px;stroke-linecap:square;"/><path d="M428.414,167.498l22.415,0" style="fill:none;stroke:#300c01;stroke-width:3.51px;stroke-linecap:square;"/><path d="M356.499,248.568l20.791,-0" style="fill:none;stroke:#300c01;stroke-width:3.51px;stroke-linecap:square;"/><path d="M332.105,154.254l20.791,-0" style="fill:none;stroke:#300c01;stroke-width:3.51px;stroke-linecap:square;"/><path d="M406.516,98.289l19.718,-0" style="fill:none;stroke:#300c01;stroke-width:3.51px;stroke-linecap:square;"/><path d="M332.105,177.68l20.791,0" style="fill:none;stroke:#300c01;stroke-width:3.51px;stroke-linecap:square;"/><path d="M310.273,229.722l21.112,-0" style="fill:none;stroke:#300c01;stroke-width:3.51px;stroke-linecap:square;"/><path d="M175.301,206.295l21.111,-0" style="fill:none;stroke:#300c01;stroke-width:3.51px;stroke-linecap:square;"/><path d="M212.986,128.543l21.111,-0" style="fill:none;stroke:#300c01;stroke-width:3.51px;stroke-linecap:square;"/><path d="M172.969,177.68l23.443,0" style="fill:none;stroke:#300c01;stroke-width:3.51px;stroke-linecap:square;"/><path d="M100.606,74.366l-0,-17.314" style="fill:none;stroke:#300c01;stroke-width:3.51px;stroke-linecap:square;"/><path d="M356.123,91.68l-0,-17.314" style="fill:none;stroke:#300c01;stroke-width:3.51px;stroke-linecap:square;"/><path d="M124.791,283.416l-0,-14.748" style="fill:none;stroke:#300c01;stroke-width:3.51px;stroke-linecap:square;"/><path d="M150.871,283.416l0,-17.493" style="fill:none;stroke:#300c01;stroke-width:3.51px;stroke-linecap:square;"/><path d="M209.022,318.187l0,-14.174" style="fill:none;stroke:#300c01;stroke-width:3.51px;stroke-linecap:square;"/></g></g><g id="Finish"><path d="M234.127,165.905l-13.39,0l0,8.714m40.506,1.301l-0,-10.015l-12.406,0m-28.1,18l0,8.464l13.39,-0m14.339,-0l12.777,-0l0.02,-8.511m-12.426,-17.953l1.607,0" style="fill:none;stroke:#300c01;stroke-width:3.35px;"/><rect id="finish" x="235.591" y="176.038" width="8.712" height="5.919" style="fill:#00007f;"/><path d="M244.228,173.121l-4.469,-3.12l-4.168,2.909m12.899,9.872l4.79,-3.344l-4.141,-2.89m-17.989,-0.538l-4.048,2.825l4.469,3.12m4.787,3.341l4.265,2.976l4.077,-2.836m4.439,-8.888l0.536,0.375" style="fill:none;stroke:#300c01;stroke-width:0.75px;"/></g><rect id="start" x="11.482" y="341.688" width="22.46" height="16.519" style="fill:#05ff35;"/></g></svg>